<?xml version="1.0" encoding="utf-8"?>
<!-- Generator: Adobe Illustrator 16.0.3, SVG Export Plug-In . SVG Version: 6.00 Build 0)  -->
<!DOCTYPE svg PUBLIC "-//W3C//DTD SVG 1.1//EN" "http://www.w3.org/Graphics/SVG/1.1/DTD/svg11.dtd">
<svg version="1.1" id="Layer_1" xmlns="http://www.w3.org/2000/svg" xmlns:xlink="http://www.w3.org/1999/xlink" x="0px" y="0px"
	 width="8px" height="8px" viewBox="0 0 8 8" enable-background="new 0 0 8 8" xml:space="preserve">
<path fill="#FFFFFF" d="M4,0C1.799,0,0,1.799,0,4s1.799,4,4,4c1.104,0,2.092-0.456,2.813-1.188L6.125,6.124
	C5.585,6.672,4.836,6.999,4,6.999c-1.659,0-3-1.341-3-3s1.341-3,3-3c0.834,0,1.545,0.354,2.094,0.906L5,2.999h3v-3L6.813,1.187
	C6.081,0.467,5.093-0.001,4,0L4,0z"/>
</svg>
