<?xml version="1.0" encoding="utf-8"?>
<!-- Generator: Adobe Illustrator 16.0.3, SVG Export Plug-In . SVG Version: 6.00 Build 0)  -->
<!DOCTYPE svg PUBLIC "-//W3C//DTD SVG 1.1//EN" "http://www.w3.org/Graphics/SVG/1.1/DTD/svg11.dtd">
<svg version="1.1" id="Layer_1" xmlns="http://www.w3.org/2000/svg" xmlns:xlink="http://www.w3.org/1999/xlink" x="0px" y="0px"
	 width="8px" height="8px" viewBox="0 0 8 8" enable-background="new 0 0 8 8" xml:space="preserve">
<path fill="#FFFFFF" d="M4.5,0C3.29,0,2.23,0.86,2,2C0.9,2,0,2.9,0,4c0,0.37,0.111,0.7,0.281,1H2.5l2-2l2,2h1.406
	C7.956,4.84,8,4.68,8,4.5C8,3.85,7.58,3.21,7,3V2.5C7,1.12,5.88,0,4.5,0z M4.5,4.5L2,7h2v0.5C4,7.776,4.224,8,4.5,8S5,7.776,5,7.5V7
	h2L4.5,4.5z"/>
</svg>
